Coordinates
version=1
nRows=9
nColumns=63
inDegrees=yes

Units are S.I. units (second, meters, Newtons, ...)
If the header above contains a line with 'inDegrees', this indicates whether rotational values are in degrees (yes) or radians (no).

endheader
time	pelvis_tilt	pelvis_list	pelvis_rotation	pelvis_tx	pelvis_ty	pelvis_tz	hip_flexion_r	hip_adduction_r	hip_rotation_r	knee_angle_r	knee_angle_r_beta	ankle_angle_r	subtalar_angle_r	mtp_angle_r	hip_flexion_l	hip_adduction_l	hip_rotation_l	knee_angle_l	knee_angle_l_beta	ankle_angle_l	subtalar_angle_l	mtp_angle_l	L5_S1_Flex_Ext	L5_S1_Lat_Bending	L5_S1_axial_rotation	L4_L5_Flex_Ext	L4_L5_Lat_Bending	L4_L5_axial_rotation	L3_L4_Flex_Ext	L3_L4_Lat_Bending	L3_L4_axial_rotation	L2_L3_Flex_Ext	L2_L3_Lat_Bending	L2_L3_axial_rotation	L1_L2_Flex_Ext	L1_L2_Lat_Bending	L1_L2_axial_rotation	L1_T12_Flex_Ext	L1_T12_Lat_Bending	L1_T12_axial_rotation	Abs_r3	Abs_r2	Abs_r1	Abs_t1	Abs_t2	neck_flexion	neck_bending	neck_rotation	arm_flex_r	arm_add_r	arm_rot_r	elbow_flex_r	pro_sup_r	wrist_flex_r	wrist_dev_r	arm_flex_l	arm_add_l	arm_rot_l	elbow_flex_l	pro_sup_l	wrist_flex_l	wrist_dev_l
      4.00000000	      1.08555808	     -9.61071806	     80.17138627	      0.24128721	      0.89819296	      0.63716217	      3.18045915	      1.52198888	      8.27416003	      6.92365156	      0.12084052	     17.40102537	     -8.39021227	      0.00000000	     -1.09568107	     -3.94673113	     -5.30497004	      1.10612991	      0.01930561	     25.33330922	      7.11789502	      0.00000000	      0.18231856	      0.33253504	      0.41850735	      0.33858379	      0.44227161	      0.44466406	      0.29953115	      0.80852570	      0.44466406	      0.20837188	      0.80852570	      0.36619394	      0.16930101	      0.67810546	      0.34003723	      0.10417682	      0.51509678	      0.31388052	      1.30228321	      3.76170290	      2.32761235	      0.00000000	      0.00000000	     27.99944314	     -2.13884314	     -9.24432367	     -9.19100084	    -13.77086191	      1.53453751	     84.88146789	     87.58645607	     -0.69584576	     24.95016799	     12.05587475	    -11.38478830	    161.32610090	      0.42390482	      1.90573998	    -10.08019064	    -22.52191156
      4.01666667	      1.01383370	     -9.72806342	     78.47553042	      0.24281976	      0.89792162	      0.63787248	      3.76866847	      1.57153292	      9.57436969	      7.62445631	      0.13307187	     17.88185154	     -8.04478918	      0.00000000	     -1.23653719	     -3.84182489	     -6.39664612	      1.04234940	      0.01819243	     25.37310177	      6.52021588	      0.00000000	      0.19477647	      0.32375916	      0.74184890	      0.36171939	      0.43059969	      0.78821445	      0.31999827	      0.78718803	      0.78821445	      0.22261003	      0.78718803	      0.64911778	      0.18086943	      0.66020968	      0.60275223	      0.11129528	      0.50150294	      0.55638667	      1.39126886	      3.66242840	      4.12594100	      0.00000000	      0.00000000	     27.99820498	     -3.02463849	    -10.35488534	     -9.35216233	    -14.15054449	      2.01150330	     87.12519504	     87.93461943	     -0.89799903	     23.56509467	     11.98764178	    -11.26249450	    161.00724509	      0.44474445	      1.72106186	     -7.57482727	    -22.89875200
      4.03333333	      0.97935657	     -9.66939533	     78.31325583	      0.24280288	      0.89779851	      0.63739140	      3.78331831	      1.52608404	      9.74516650	      7.76034762	      0.13544362	     18.06130724	     -8.06623111	      0.00000000	     -1.36390863	     -3.77975251	     -6.40984914	      1.05683040	      0.01844517	     25.31694515	      6.52399432	      0.00000000	      0.19564013	      0.31043648	      0.72314955	      0.36332328	      0.41288052	      0.76834640	      0.32141716	      0.75479526	      0.76834640	      0.22359710	      0.75479526	      0.63275586	      0.18167142	      0.63304207	      0.58755901	      0.11178877	      0.48086611	      0.54236216	      1.39743786	      3.51171957	      4.02194086	      0.00000000	      0.00000000	     28.02400212	     -3.13253944	    -10.47976248	     -9.30208824	    -14.27925857	      2.56758884	     88.82861645	     88.07689276	     -0.67961542	     23.17765865	     11.55579070	    -11.25213128	    161.08405243	      0.47736168	      1.72714797	     -7.27385076	    -22.90493203
      4.05000000	      0.92081582	     -9.68439247	     77.35825852	      0.24339381	      0.89748994	      0.63712141	      4.00642742	      1.55911360	     11.37105610	      8.08017317	      0.14102563	     18.38303360	     -8.83721337	      0.00000000	     -1.56067873	     -3.65903082	     -6.80436318	      0.96760533	      0.01688790	     25.28670888	      6.07525235	      0.00000000	      0.20150690	      0.30312636	      0.90123870	      0.37421847	      0.40315806	      0.95756612	      0.33105569	      0.73702143	      0.95756612	      0.23030224	      0.73702143	      0.78858387	      0.18711931	      0.61813527	      0.73225645	      0.11514104	      0.46954273	      0.67592903	      1.43934364	      3.42902599	      5.01241930	      0.00000000	      0.00000000	     28.03644786	     -4.15854624	    -11.25071671	     -9.59435067	    -14.76219256	      3.39011043	     90.14620260	     88.52807824	     -2.09389546	     20.39153418	     11.48976215	    -11.23533072	    160.59959283	      0.48828818	      1.55167867	     -2.19877628	    -22.83600689
      4.06666667	      0.91136716	     -9.61045651	     77.32634709	      0.24298726	      0.89728333	      0.63589730	      3.92750994	      1.50756269	     11.63315350	      8.12887295	      0.14187560	     18.75855676	     -8.87369338	      0.00000000	     -1.72763646	     -3.58499746	     -6.79402232	      0.95399503	      0.01665035	     25.31943567	      6.07000777	      0.00000000	      0.20329879	      0.30020999	      0.85835617	      0.37754618	      0.39927929	      0.91200343	      0.33399958	      0.72993058	      0.91200343	      0.23235018	      0.72993058	      0.75106165	      0.18878325	      0.61218822	      0.69741439	      0.11616493	      0.46502528	      0.64376712	      1.45214290	      3.39603549	      4.77391949	      0.00000000	      0.00000000	     28.05915369	     -4.44497705	    -11.22799792	     -9.95604512	    -15.07414354	      3.95214868	     91.54738550	     88.70638370	     -1.84174106	     19.77728255	     10.89576145	    -11.22198117	    160.65336818	      0.53515474	      1.58092107	     -1.96402592	    -22.72896279
      4.08333333	      1.06902070	     -9.62053591	     77.21139223	      0.24255426	      0.89708218	      0.63489497	      3.87918916	      1.66628678	     12.46745124	      8.07028203	      0.14085299	     19.03813223	     -9.46401644	      0.00000000	     -1.86027162	     -3.70584778	     -6.62388200	      0.88241885	      0.01540111	     25.44248129	      5.88673423	      0.00000000	      0.20545027	      0.32496760	      0.84668448	      0.38154171	      0.43220690	      0.89960225	      0.33753426	      0.79012621	      0.89960225	      0.23480912	      0.79012621	      0.74084892	      0.19078113	      0.66267392	      0.68793114	      0.11739429	      0.50337481	      0.63501336	      1.46751077	      3.67609844	      4.70900505	      0.00000000	      0.00000000	     28.07241573	     -5.50992069	    -11.23407345	    -10.60668792	    -15.83684265	      5.06434355	     92.41491290	     88.97079317	     -2.57596580	     14.87239719	     10.40248547	    -11.13098937	    160.91181316	      0.56140482	      1.54034873	     -0.68059378	    -22.38787616
      4.10000000	      1.24483320	     -9.56733369	     77.40511433	      0.24172830	      0.89696255	      0.63349278	      3.69399370	      1.78163018	     12.76014094	      7.91208925	      0.13809201	     19.39291528	     -9.69833188	      0.00000000	     -2.01763723	     -3.83106124	     -6.36415139	      0.83616239	      0.01459379	     25.60397127	      5.86129128	      0.00000000	      0.20195046	      0.34707923	      0.78292678	      0.37504220	      0.46161537	      0.83185970	      0.33178441	      0.84388843	      0.83185970	      0.23080918	      0.84388843	      0.68506093	      0.18753120	      0.70776396	      0.63612801	      0.11539449	      0.53762572	      0.58719509	      1.44251195	      3.92622961	      4.35440388	      0.00000000	      0.00000000	     28.06975076	     -6.18743388	    -11.31180024	    -11.50466377	    -16.59125994	      6.03708579	     93.59113676	     89.13436464	     -2.79063836	     11.31832363	      9.74779287	    -11.06735727	    161.53712990	      0.61824591	      1.52714804	     -1.10857571	    -22.28023026
      4.11666667	      1.39882033	     -9.51080669	     77.78900740	      0.24065801	      0.89689607	      0.63187316	      3.45313504	      1.84257449	     12.67256822	      7.67490848	      0.13395242	     19.74376055	     -9.67005903	      0.00000000	     -2.15399217	     -3.93957897	     -5.96141296	      0.79532857	      0.01388110	     25.72795105	      5.89964168	      0.00000000	      0.19992950	      0.36215219	      0.67511975	      0.37128908	      0.48166242	      0.71731473	      0.32846418	      0.88053684	      0.71731473	      0.22849943	      0.88053684	      0.59072978	      0.18565453	      0.73850075	      0.54853479	      0.11423972	      0.56097375	      0.50633981	      1.42807643	      4.09673803	      3.75481349	      0.00000000	      0.00000000	     28.04624131	     -6.87373557	    -11.56513420	    -12.52240035	    -17.44389844	      7.29331803	     94.76200967	     89.25622013	     -3.31855879	      7.54191665	      8.95469557	    -11.07133234	    162.44627504	      0.70830595	      1.45607756	     -2.60184399	    -22.48691646
      4.13333333	      1.61244587	     -9.43807587	     78.37986096	      0.23941945	      0.89685737	      0.63000776	      3.11296538	      1.93829486	     12.13309301	      7.39438855	      0.12905643	     19.99586944	     -9.39118364	      0.00000000	     -2.30427792	     -4.11472275	     -5.42770636	      0.76090984	      0.01328038	     25.89084553	      5.99128788	      0.00000000	      0.19523602	      0.37692355	      0.50949804	      0.36257281	      0.50130832	      0.54134167	      0.32075325	      0.91645191	      0.54134167	      0.22313524	      0.91645191	      0.44581078	      0.18129617	      0.76862249	      0.41396716	      0.11155786	      0.58385457	      0.38212353	      1.39455135	      4.26383453	      2.83367525	      0.00000000	      0.00000000	     28.00214475	     -7.59071984	    -12.01134655	    -13.53351217	    -18.32431241	      8.79202238	     95.94237813	     89.33352943	     -4.04965724	      4.07376186	      7.99188486	    -11.12341302	    163.22436641	      0.86779782	      1.35677236	     -5.19578094	    -22.91534216
